<mxfile host="app.diagrams.net" agent="Mozilla/5.0 (Windows NT 10.0; Win64; x64) AppleWebKit/537.36 (KHTML, like Gecko) Chrome/133.0.0.0 Safari/537.36" version="26.1.0">
  <diagram name="Sayfa -1" id="55TPPgF1OQXHa3s0PrZa">
    <mxGraphModel grid="1" page="1" gridSize="10" guides="1" tooltips="1" connect="1" arrows="1" fold="1" pageScale="1" pageWidth="827" pageHeight="1169" math="1" shadow="0">
      <root>
        <mxCell id="0" />
        <mxCell id="1" parent="0" />
        <mxCell id="mXV_nLaLVZJTpSqG4kug-22" value="&lt;font style=&quot;font-size: 10px;&quot;&gt;$$y$$&lt;/font&gt;" style="text;html=1;align=center;verticalAlign=middle;resizable=0;points=[];autosize=1;strokeColor=none;fillColor=none;" vertex="1" parent="1">
          <mxGeometry x="310" y="720" width="50" height="30" as="geometry" />
        </mxCell>
        <mxCell id="mXV_nLaLVZJTpSqG4kug-3" value="" style="shape=parallelogram;perimeter=parallelogramPerimeter;whiteSpace=wrap;html=1;fixedSize=1;fillColor=#f8cecc;strokeColor=#b85450;" vertex="1" parent="1">
          <mxGeometry x="110" y="580" width="230" height="165" as="geometry" />
        </mxCell>
        <mxCell id="mXV_nLaLVZJTpSqG4kug-4" value="" style="endArrow=classic;html=1;rounded=0;dashed=1;fontSize=11;jumpSize=6;endSize=3;" edge="1" parent="1">
          <mxGeometry width="50" height="50" relative="1" as="geometry">
            <mxPoint x="130" y="580" as="sourcePoint" />
            <mxPoint x="135" y="540" as="targetPoint" />
          </mxGeometry>
        </mxCell>
        <mxCell id="mXV_nLaLVZJTpSqG4kug-9" value="&lt;font style=&quot;font-size: 10px;&quot;&gt;$$z$$&lt;/font&gt;" style="edgeLabel;html=1;align=center;verticalAlign=middle;resizable=0;points=[];" connectable="0" vertex="1" parent="mXV_nLaLVZJTpSqG4kug-4">
          <mxGeometry x="0.0212" y="-1" relative="1" as="geometry">
            <mxPoint x="-9" y="-1" as="offset" />
          </mxGeometry>
        </mxCell>
        <mxCell id="mXV_nLaLVZJTpSqG4kug-5" value="" style="endArrow=classic;html=1;rounded=0;dashed=1;fontSize=11;jumpSize=6;endSize=3;" edge="1" parent="1">
          <mxGeometry width="50" height="50" relative="1" as="geometry">
            <mxPoint x="320" y="745" as="sourcePoint" />
            <mxPoint x="360" y="745" as="targetPoint" />
          </mxGeometry>
        </mxCell>
        <mxCell id="mXV_nLaLVZJTpSqG4kug-15" value="&lt;font style=&quot;font-size: 12px;&quot;&gt;Obstacle&lt;/font&gt;" style="shape=cube;whiteSpace=wrap;html=1;boundedLbl=1;backgroundOutline=1;darkOpacity=0.05;darkOpacity2=0.1;rotation=90;fillColor=#f5f5f5;strokeColor=#666666;fontColor=#333333;" vertex="1" parent="1">
          <mxGeometry x="188.88" y="487.25" width="70.75" height="33.75" as="geometry" />
        </mxCell>
        <mxCell id="mXV_nLaLVZJTpSqG4kug-16" value="" style="verticalLabelPosition=bottom;shadow=0;dashed=0;align=center;html=1;verticalAlign=top;shape=mxgraph.electrical.radio.aerial_-_antenna_2;" vertex="1" parent="1">
          <mxGeometry x="161" y="501" width="15" height="20" as="geometry" />
        </mxCell>
        <mxCell id="mXV_nLaLVZJTpSqG4kug-17" value="&lt;font style=&quot;font-size: 10px;&quot;&gt;$$TX$$&lt;/font&gt;" style="text;html=1;align=center;verticalAlign=middle;resizable=0;points=[];autosize=1;strokeColor=none;fillColor=none;" vertex="1" parent="1">
          <mxGeometry x="138.5" y="477.25" width="60" height="30" as="geometry" />
        </mxCell>
        <mxCell id="31kajnl80xachGth-Hdo-159" value="&lt;font style=&quot;font-size: 10px;&quot;&gt;$$RX$$&lt;/font&gt;" style="text;html=1;align=center;verticalAlign=middle;resizable=0;points=[];autosize=1;strokeColor=none;fillColor=none;" vertex="1" parent="1">
          <mxGeometry x="235" y="469.25" width="60" height="30" as="geometry" />
        </mxCell>
        <mxCell id="TvTcWb5VUMBZFYF4RlYJ-60" value="" style="verticalLabelPosition=bottom;shadow=0;dashed=0;align=center;html=1;verticalAlign=top;shape=mxgraph.electrical.radio.aerial_-_antenna_2;" vertex="1" parent="1">
          <mxGeometry x="257.5" y="490" width="15" height="20" as="geometry" />
        </mxCell>
        <mxCell id="gopYjxc5dSE2zGMlFJAP-2" value="&lt;font style=&quot;font-size: 12px;&quot;&gt;$$\mathbf{\hat{k}}_i$$&lt;/font&gt;" style="text;html=1;align=center;verticalAlign=middle;resizable=0;points=[];autosize=1;strokeColor=none;fillColor=none;" vertex="1" parent="1">
          <mxGeometry x="106" y="536" width="140" height="30" as="geometry" />
        </mxCell>
        <mxCell id="gopYjxc5dSE2zGMlFJAP-3" value="&lt;font style=&quot;font-size: 12px;&quot;&gt;$$\mathbf{\hat{k}}_r$$&lt;/font&gt;" style="text;html=1;align=center;verticalAlign=middle;resizable=0;points=[];autosize=1;strokeColor=none;fillColor=none;" vertex="1" parent="1">
          <mxGeometry x="188.88" y="536" width="140" height="30" as="geometry" />
        </mxCell>
        <mxCell id="gopYjxc5dSE2zGMlFJAP-4" value="" style="verticalLabelPosition=bottom;verticalAlign=top;html=1;shape=mxgraph.basic.arc;startAngle=0.6073883562613613;endAngle=0.7189200001993006;rotation=120;" vertex="1" parent="1">
          <mxGeometry x="159" y="564" width="100" height="100" as="geometry" />
        </mxCell>
        <mxCell id="gopYjxc5dSE2zGMlFJAP-5" value="&lt;span style=&quot;background-color: rgb(255, 255, 255);&quot;&gt;&lt;font style=&quot;&quot;&gt;&lt;span style=&quot;font-size: 10px;&quot;&gt;$$\mathbf{\hat{n}}$$&lt;/span&gt;&lt;/font&gt;&lt;/span&gt;" style="text;html=1;align=center;verticalAlign=middle;resizable=0;points=[];autosize=1;strokeColor=none;fillColor=none;" vertex="1" parent="1">
          <mxGeometry x="168.25" y="530" width="110" height="30" as="geometry" />
        </mxCell>
        <mxCell id="gopYjxc5dSE2zGMlFJAP-6" value="&lt;font style=&quot;font-size: 12px;&quot;&gt;$$\theta_i$$&lt;/font&gt;" style="text;html=1;align=center;verticalAlign=middle;resizable=0;points=[];autosize=1;strokeColor=none;fillColor=none;" vertex="1" parent="1">
          <mxGeometry x="159" y="542" width="90" height="30" as="geometry" />
        </mxCell>
        <mxCell id="gopYjxc5dSE2zGMlFJAP-7" value="&lt;font style=&quot;font-size: 12px;&quot;&gt;$$\theta_r$$&lt;/font&gt;" style="text;html=1;align=center;verticalAlign=middle;resizable=0;points=[];autosize=1;strokeColor=none;fillColor=none;" vertex="1" parent="1">
          <mxGeometry x="191.63" y="546" width="90" height="30" as="geometry" />
        </mxCell>
        <mxCell id="gopYjxc5dSE2zGMlFJAP-8" value="" style="endArrow=open;html=1;rounded=0;dashed=1;endSize=3;endFill=0;strokeWidth=1.5;" edge="1" parent="1">
          <mxGeometry width="50" height="50" relative="1" as="geometry">
            <mxPoint x="224" y="661" as="sourcePoint" />
            <mxPoint x="224" y="550" as="targetPoint" />
          </mxGeometry>
        </mxCell>
        <mxCell id="gopYjxc5dSE2zGMlFJAP-9" value="" style="verticalLabelPosition=bottom;verticalAlign=top;html=1;shape=mxgraph.basic.arc;startAngle=0.70083214503148;endAngle=0.7677898686844004;rotation=110;" vertex="1" parent="1">
          <mxGeometry x="172" y="566" width="100" height="100" as="geometry" />
        </mxCell>
        <mxCell id="gopYjxc5dSE2zGMlFJAP-10" value="" style="endArrow=open;html=1;rounded=0;endSize=5;endFill=0;strokeWidth=1.5;entryX=0.226;entryY=0.333;entryDx=0;entryDy=0;entryPerimeter=0;" edge="1" parent="1" target="TvTcWb5VUMBZFYF4RlYJ-60">
          <mxGeometry width="50" height="50" relative="1" as="geometry">
            <mxPoint x="224.5" y="661.38" as="sourcePoint" />
            <mxPoint x="274.5" y="502" as="targetPoint" />
          </mxGeometry>
        </mxCell>
        <mxCell id="gopYjxc5dSE2zGMlFJAP-1" value="" style="endArrow=open;html=1;rounded=0;endSize=5;endFill=0;strokeWidth=1.5;exitX=0.6;exitY=0.45;exitDx=0;exitDy=0;exitPerimeter=0;" edge="1" parent="1" source="mXV_nLaLVZJTpSqG4kug-16">
          <mxGeometry width="50" height="50" relative="1" as="geometry">
            <mxPoint x="109.93377483443714" y="489.25" as="sourcePoint" />
            <mxPoint x="225" y="663" as="targetPoint" />
          </mxGeometry>
        </mxCell>
        <mxCell id="gopYjxc5dSE2zGMlFJAP-13" value="&lt;font style=&quot;font-size: 10px;&quot;&gt;$$\mathbf{\hat{k}}_r^p$$&lt;/font&gt;" style="text;html=1;align=center;verticalAlign=middle;resizable=0;points=[];autosize=1;strokeColor=none;fillColor=none;" vertex="1" parent="1">
          <mxGeometry x="175" y="635.5" width="130" height="30" as="geometry" />
        </mxCell>
        <mxCell id="gopYjxc5dSE2zGMlFJAP-14" value="&lt;font style=&quot;font-size: 10px;&quot;&gt;$$\mathbf{\hat{k}}_i^p$$&lt;/font&gt;" style="text;html=1;align=center;verticalAlign=middle;resizable=0;points=[];autosize=1;strokeColor=none;fillColor=none;" vertex="1" parent="1">
          <mxGeometry x="158" y="659.5" width="130" height="30" as="geometry" />
        </mxCell>
        <mxCell id="gopYjxc5dSE2zGMlFJAP-15" value="" style="endArrow=block;html=1;rounded=0;endSize=3;endFill=1;strokeWidth=1;dashed=1;fillColor=#d5e8d4;strokeColor=#82b366;entryX=0.252;entryY=0.005;entryDx=0;entryDy=0;exitX=0.751;exitY=0.993;exitDx=0;exitDy=0;exitPerimeter=0;entryPerimeter=0;" edge="1" parent="1" source="mXV_nLaLVZJTpSqG4kug-3" target="mXV_nLaLVZJTpSqG4kug-3">
          <mxGeometry width="50" height="50" relative="1" as="geometry">
            <mxPoint x="237" y="679" as="sourcePoint" />
            <mxPoint x="222.63" y="658" as="targetPoint" />
          </mxGeometry>
        </mxCell>
        <mxCell id="gopYjxc5dSE2zGMlFJAP-16" value="" style="endArrow=block;html=1;rounded=0;endSize=3;endFill=1;strokeWidth=1;dashed=1;fillColor=#dae8fc;strokeColor=#6c8ebf;entryX=0.236;entryY=0.996;entryDx=0;entryDy=0;entryPerimeter=0;exitX=0.735;exitY=0.004;exitDx=0;exitDy=0;exitPerimeter=0;" edge="1" parent="1" source="mXV_nLaLVZJTpSqG4kug-3" target="mXV_nLaLVZJTpSqG4kug-3">
          <mxGeometry width="50" height="50" relative="1" as="geometry">
            <mxPoint x="230.68" y="650" as="sourcePoint" />
            <mxPoint x="213.31" y="675" as="targetPoint" />
          </mxGeometry>
        </mxCell>
        <mxCell id="gopYjxc5dSE2zGMlFJAP-17" value="" style="endArrow=block;html=1;rounded=0;endSize=3;endFill=1;strokeWidth=1;dashed=1;fillColor=#dae8fc;strokeColor=#6c8ebf;entryX=0.236;entryY=0.996;entryDx=0;entryDy=0;entryPerimeter=0;exitX=0.735;exitY=0.004;exitDx=0;exitDy=0;exitPerimeter=0;" edge="1" parent="1">
          <mxGeometry width="50" height="50" relative="1" as="geometry">
            <mxPoint x="319.38" y="581" as="sourcePoint" />
            <mxPoint x="204.38" y="744" as="targetPoint" />
          </mxGeometry>
        </mxCell>
        <mxCell id="gopYjxc5dSE2zGMlFJAP-18" value="" style="endArrow=block;html=1;rounded=0;endSize=3;endFill=1;strokeWidth=1;dashed=1;fillColor=#dae8fc;strokeColor=#6c8ebf;entryX=0.236;entryY=0.996;entryDx=0;entryDy=0;entryPerimeter=0;exitX=0.977;exitY=0.214;exitDx=0;exitDy=0;exitPerimeter=0;" edge="1" parent="1" source="mXV_nLaLVZJTpSqG4kug-3">
          <mxGeometry width="50" height="50" relative="1" as="geometry">
            <mxPoint x="359" y="581" as="sourcePoint" />
            <mxPoint x="244" y="744" as="targetPoint" />
          </mxGeometry>
        </mxCell>
        <mxCell id="gopYjxc5dSE2zGMlFJAP-19" value="" style="endArrow=block;html=1;rounded=0;endSize=3;endFill=1;strokeWidth=1;dashed=1;fillColor=#dae8fc;strokeColor=#6c8ebf;entryX=0.236;entryY=0.996;entryDx=0;entryDy=0;entryPerimeter=0;exitX=0.946;exitY=0.618;exitDx=0;exitDy=0;exitPerimeter=0;" edge="1" parent="1" source="mXV_nLaLVZJTpSqG4kug-3">
          <mxGeometry width="50" height="50" relative="1" as="geometry">
            <mxPoint x="374.63" y="615" as="sourcePoint" />
            <mxPoint x="283.63" y="744" as="targetPoint" />
          </mxGeometry>
        </mxCell>
        <mxCell id="gopYjxc5dSE2zGMlFJAP-20" value="" style="endArrow=block;html=1;rounded=0;endSize=3;endFill=1;strokeWidth=1;dashed=1;fillColor=#dae8fc;strokeColor=#6c8ebf;entryX=0.236;entryY=0.996;entryDx=0;entryDy=0;entryPerimeter=0;exitX=0.735;exitY=0.004;exitDx=0;exitDy=0;exitPerimeter=0;" edge="1" parent="1">
          <mxGeometry width="50" height="50" relative="1" as="geometry">
            <mxPoint x="239.5" y="581" as="sourcePoint" />
            <mxPoint x="124.5" y="744" as="targetPoint" />
          </mxGeometry>
        </mxCell>
        <mxCell id="gopYjxc5dSE2zGMlFJAP-21" value="" style="endArrow=block;html=1;rounded=0;endSize=3;endFill=1;strokeWidth=1;dashed=1;fillColor=#dae8fc;strokeColor=#6c8ebf;entryX=0.032;entryY=0.71;entryDx=0;entryDy=0;entryPerimeter=0;exitX=0.735;exitY=0.004;exitDx=0;exitDy=0;exitPerimeter=0;" edge="1" parent="1" target="mXV_nLaLVZJTpSqG4kug-3">
          <mxGeometry width="50" height="50" relative="1" as="geometry">
            <mxPoint x="199.5" y="581" as="sourcePoint" />
            <mxPoint x="84.5" y="744" as="targetPoint" />
          </mxGeometry>
        </mxCell>
        <mxCell id="gopYjxc5dSE2zGMlFJAP-22" value="" style="endArrow=block;html=1;rounded=0;endSize=3;endFill=1;strokeWidth=1;dashed=1;fillColor=#dae8fc;strokeColor=#6c8ebf;entryX=0.065;entryY=0.296;entryDx=0;entryDy=0;entryPerimeter=0;exitX=0.735;exitY=0.004;exitDx=0;exitDy=0;exitPerimeter=0;" edge="1" parent="1" target="mXV_nLaLVZJTpSqG4kug-3">
          <mxGeometry width="50" height="50" relative="1" as="geometry">
            <mxPoint x="159" y="581" as="sourcePoint" />
            <mxPoint x="76.5" y="697" as="targetPoint" />
          </mxGeometry>
        </mxCell>
        <mxCell id="gopYjxc5dSE2zGMlFJAP-23" value="" style="endArrow=block;html=1;rounded=0;endSize=3;endFill=1;strokeWidth=1;dashed=1;fillColor=#d5e8d4;strokeColor=#82b366;entryX=0.09;entryY=0.029;entryDx=0;entryDy=0;exitX=0.751;exitY=0.993;exitDx=0;exitDy=0;exitPerimeter=0;entryPerimeter=0;" edge="1" parent="1" target="mXV_nLaLVZJTpSqG4kug-3">
          <mxGeometry width="50" height="50" relative="1" as="geometry">
            <mxPoint x="243" y="744" as="sourcePoint" />
            <mxPoint x="128" y="581" as="targetPoint" />
          </mxGeometry>
        </mxCell>
        <mxCell id="gopYjxc5dSE2zGMlFJAP-24" value="" style="endArrow=block;html=1;rounded=0;endSize=3;endFill=1;strokeWidth=1;dashed=1;fillColor=#d5e8d4;strokeColor=#82b366;entryX=0.063;entryY=0.323;entryDx=0;entryDy=0;exitX=0.751;exitY=0.993;exitDx=0;exitDy=0;exitPerimeter=0;entryPerimeter=0;" edge="1" parent="1" target="mXV_nLaLVZJTpSqG4kug-3">
          <mxGeometry width="50" height="50" relative="1" as="geometry">
            <mxPoint x="202.5" y="744" as="sourcePoint" />
            <mxPoint x="90.5" y="585" as="targetPoint" />
          </mxGeometry>
        </mxCell>
        <mxCell id="gopYjxc5dSE2zGMlFJAP-25" value="" style="endArrow=block;html=1;rounded=0;endSize=3;endFill=1;strokeWidth=1;dashed=1;fillColor=#d5e8d4;strokeColor=#82b366;entryX=0.037;entryY=0.613;entryDx=0;entryDy=0;exitX=0.751;exitY=0.993;exitDx=0;exitDy=0;exitPerimeter=0;entryPerimeter=0;" edge="1" parent="1" target="mXV_nLaLVZJTpSqG4kug-3">
          <mxGeometry width="50" height="50" relative="1" as="geometry">
            <mxPoint x="163.25" y="744" as="sourcePoint" />
            <mxPoint x="84.75" y="633" as="targetPoint" />
          </mxGeometry>
        </mxCell>
        <mxCell id="gopYjxc5dSE2zGMlFJAP-26" value="" style="endArrow=block;html=1;rounded=0;endSize=3;endFill=1;strokeWidth=1;dashed=1;fillColor=#d5e8d4;strokeColor=#82b366;entryX=0.252;entryY=0.005;entryDx=0;entryDy=0;exitX=0.912;exitY=0.962;exitDx=0;exitDy=0;exitPerimeter=0;entryPerimeter=0;" edge="1" parent="1" source="mXV_nLaLVZJTpSqG4kug-3">
          <mxGeometry width="50" height="50" relative="1" as="geometry">
            <mxPoint x="323.5" y="744" as="sourcePoint" />
            <mxPoint x="208.5" y="581" as="targetPoint" />
          </mxGeometry>
        </mxCell>
        <mxCell id="gopYjxc5dSE2zGMlFJAP-27" value="" style="endArrow=block;html=1;rounded=0;endSize=3;endFill=1;strokeWidth=1;dashed=1;fillColor=#d5e8d4;strokeColor=#82b366;entryX=0.601;entryY=0.001;entryDx=0;entryDy=0;exitX=0.938;exitY=0.666;exitDx=0;exitDy=0;exitPerimeter=0;entryPerimeter=0;" edge="1" parent="1">
          <mxGeometry width="50" height="50" relative="1" as="geometry">
            <mxPoint x="325.73999999999995" y="690.8900000000001" as="sourcePoint" />
            <mxPoint x="248.22999999999996" y="581.1650000000001" as="targetPoint" />
          </mxGeometry>
        </mxCell>
        <mxCell id="gopYjxc5dSE2zGMlFJAP-28" value="" style="endArrow=block;html=1;rounded=0;endSize=3;endFill=1;strokeWidth=1;dashed=1;fillColor=#d5e8d4;strokeColor=#82b366;entryX=0.601;entryY=0.001;entryDx=0;entryDy=0;exitX=0.961;exitY=0.378;exitDx=0;exitDy=0;exitPerimeter=0;entryPerimeter=0;" edge="1" parent="1" source="mXV_nLaLVZJTpSqG4kug-3">
          <mxGeometry width="50" height="50" relative="1" as="geometry">
            <mxPoint x="365.50999999999993" y="691.0000000000001" as="sourcePoint" />
            <mxPoint x="287.99999999999994" y="581.2750000000001" as="targetPoint" />
          </mxGeometry>
        </mxCell>
        <mxCell id="gopYjxc5dSE2zGMlFJAP-11" value="" style="endArrow=open;html=1;rounded=0;endSize=3;endFill=0;strokeWidth=1.5;" edge="1" parent="1">
          <mxGeometry width="50" height="50" relative="1" as="geometry">
            <mxPoint x="223.63" y="660" as="sourcePoint" />
            <mxPoint x="238" y="681" as="targetPoint" />
          </mxGeometry>
        </mxCell>
        <mxCell id="gopYjxc5dSE2zGMlFJAP-12" value="" style="endArrow=open;html=1;rounded=0;endSize=3;endFill=0;strokeWidth=1.5;" edge="1" parent="1">
          <mxGeometry width="50" height="50" relative="1" as="geometry">
            <mxPoint x="223.63" y="660" as="sourcePoint" />
            <mxPoint x="241" y="635" as="targetPoint" />
          </mxGeometry>
        </mxCell>
        <mxCell id="gopYjxc5dSE2zGMlFJAP-41" value="&lt;font style=&quot;font-size: 10px;&quot;&gt;$$\nabla \varphi_{RIS} = \nabla \varphi_r - \nabla \varphi_i$$&lt;/font&gt;" style="text;html=1;align=center;verticalAlign=middle;resizable=0;points=[];autosize=1;strokeColor=none;fillColor=none;" vertex="1" parent="1">
          <mxGeometry x="124" y="739" width="290" height="30" as="geometry" />
        </mxCell>
        <mxCell id="gopYjxc5dSE2zGMlFJAP-42" value="&lt;font style=&quot;font-size: 10px;&quot;&gt;$$\nabla \varphi_i$$&lt;/font&gt;" style="text;html=1;align=center;verticalAlign=middle;resizable=0;points=[];autosize=1;strokeColor=none;fillColor=none;" vertex="1" parent="1">
          <mxGeometry x="87" y="739" width="110" height="30" as="geometry" />
        </mxCell>
        <mxCell id="gopYjxc5dSE2zGMlFJAP-43" value="&lt;font style=&quot;font-size: 10px;&quot;&gt;$$\nabla \varphi_r$$&lt;/font&gt;" style="text;html=1;align=center;verticalAlign=middle;resizable=0;points=[];autosize=1;strokeColor=none;fillColor=none;" vertex="1" parent="1">
          <mxGeometry x="139" y="739" width="110" height="30" as="geometry" />
        </mxCell>
        <mxCell id="gopYjxc5dSE2zGMlFJAP-44" value="" style="endArrow=block;html=1;rounded=0;endSize=3;endFill=1;fillColor=#d5e8d4;strokeColor=#82b366;dashed=1;" edge="1" parent="1">
          <mxGeometry width="50" height="50" relative="1" as="geometry">
            <mxPoint x="111" y="754" as="sourcePoint" />
            <mxPoint x="131" y="754" as="targetPoint" />
          </mxGeometry>
        </mxCell>
        <mxCell id="gopYjxc5dSE2zGMlFJAP-45" value="" style="endArrow=block;html=1;rounded=0;endSize=3;endFill=1;fillColor=#dae8fc;strokeColor=#6c8ebf;" edge="1" parent="1">
          <mxGeometry width="50" height="50" relative="1" as="geometry">
            <mxPoint x="162" y="753.8" as="sourcePoint" />
            <mxPoint x="182" y="753.8" as="targetPoint" />
          </mxGeometry>
        </mxCell>
      </root>
    </mxGraphModel>
  </diagram>
</mxfile>
